<?xml version="1.0" encoding="UTF-8"?>
<!DOCTYPE svg PUBLIC "-//W3C//DTD SVG 1.1//EN" "http://www.w3.org/Graphics/SVG/1.1/DTD/svg11.dtd">
<!-- Creator: CorelDRAW 2019 -->
<svg xmlns="http://www.w3.org/2000/svg" xml:space="preserve" width="46.4218mm" height="52.7275mm" version="1.1" style="shape-rendering:geometricPrecision; text-rendering:geometricPrecision; image-rendering:optimizeQuality; fill-rule:evenodd; clip-rule:evenodd"
viewBox="0 0 368.21 418.22"
 xmlns:xlink="http://www.w3.org/1999/xlink"
 xmlns:xodm="http://www.corel.com/coreldraw/odm/2003">
 <defs>
  <style type="text/css">
   <![CDATA[
    .fil0 {fill:#673709}
   ]]>
  </style>
 </defs>
 <g id="Layer_x0020_1">
  <metadata id="CorelCorpID_0Corel-Layer"/>
  <path class="fil0" d="M186.55 300.54c0.39,11.22 1.02,65.73 12.65,75.49 -1.67,-9.44 -3.4,-8.58 -4.88,-24.8 -1.3,-14.19 -2.28,-80.13 2.98,-83.67 6.23,-2.14 5.48,5.84 5.49,11.11l0.84 34.25c0.28,3.1 0.72,13.42 4.13,13.91 6.26,0.89 6.61,-20.47 7.04,-23.06 1.18,12.66 3.72,2.13 2.78,28.64 -0.4,11.24 -3.91,61.85 -11.97,68.32 -2.4,1.93 -7.89,4.9 -11.97,4.96 -2.19,-17.17 -4.28,-34.24 -6.22,-51.51 -1,-8.87 -2,-17.49 -2.68,-26.27 -0.68,-8.72 -1.17,-12.53 0.02,-21.1 0.12,-0.85 0.25,-2.28 0.42,-3.04l1.37 -3.24zm20.88 24.15c-1.5,-6.37 -4.51,-45.61 -2.36,-50.89 2.86,4.26 7.01,17.51 7.3,23.66 0.22,4.72 0.24,21.24 -2.65,25.48 -1.01,1.48 -0.54,1.07 -2.29,1.76zm-56.25 -68.87c-5.67,-0.97 -11.68,-3.47 -15.46,-5.82 -5.74,-3.57 -9.59,-6.4 -8.34,-12.3 11.43,-3.39 44.83,5.67 57.46,11.47 5.95,2.73 4.9,1.96 5.4,3.97 -5.46,1.65 -33.25,3.66 -39.06,2.67zm52.78 -9.13c0.01,-0.07 5,-17.29 6.36,-27.44 0.96,-7.14 0.04,-28.18 9.18,-18.17 11.43,12.53 -13.92,44.93 -15.55,45.61zm142.81 -70.93c-6.91,-0.27 -10.13,-5.13 -7.54,-12.85 8.16,-1.91 12.46,5.44 7.54,12.85zm-82.25 35.07c13.11,-24.63 11.64,-33.48 15.2,-59.84 3.54,0 10.17,1.91 14.22,2.58 19.26,3.19 24.31,3.15 44,4.41 -1.19,10.03 -3.78,17.51 7.08,19.66 -3.2,9.31 -45.18,43.31 -57.35,49.49l-2.27 -2.62c-2.44,-2.9 -4.93,-4.13 -6.97,-6.3 1.03,-2.52 14.17,-13.67 17.22,-27.54 -2.12,1.73 -3.35,4.55 -5.1,6.9 -1.66,2.23 -4.24,4.3 -6.03,6.05 -2.36,2.3 -10.84,8.87 -14.31,10.11 -1.57,-0.7 -4.4,-1.71 -5.69,-2.91zm-45.68 -47.4c6.55,-2.12 16.74,-9.32 22.67,-10.49 1.43,2.22 4.95,4.42 5.88,6.28 -6.19,3.02 -14.14,10.14 -17.48,11.59 -3.65,-1.74 -9.7,-4.76 -11.07,-7.38zm-17.14 82.67c-9.67,1.64 -10.8,-1.1 -17.67,-15.53 -18.08,-37.99 -19.83,-32.66 -18.82,-85.23 1.53,0.35 4.15,3.89 5.01,4.97 1.75,2.2 3.36,3.43 5.15,5.6 11.84,14.38 20.97,18.03 43.47,20.54 42.41,4.73 37.35,-5.77 45.89,-16.81 2.59,-3.35 7.75,-7 12.92,-7.95 -0.83,16.73 -3.87,36.5 -11.25,51.31 -3.89,7.8 -3.33,6.41 -9.73,11.02l-49.78 33.35c2.19,-4.13 5.38,-7.79 8.23,-12.42 19.33,-31.37 3.11,-40.17 -1.31,-38.35 -5.38,3.73 -4.65,17.53 -5.79,25.25 -1.3,8.79 -3.12,16.47 -6.3,24.25zm8.59 -98.01l-0.39 10.55c-1.84,-0.25 -9.04,-4.7 -10.57,-6.24l1.72 -3.62 9.24 -0.69zm5.75 9.67c0.64,-9.12 0.43,-12.71 4.46,-15.4 5.83,2.36 2.04,6.18 17.64,4.42 -1.15,2.37 0.56,0.77 -2.61,2.49 -3.69,1.99 -16.88,8.18 -19.49,8.49zm-131 -1.33c20.82,-6.63 29.63,-24.7 46.14,-40.71 3.67,1.22 20.83,11.59 25.62,14.49 20.25,12.24 43.7,25.12 63.44,37.22 2.34,1.43 3.92,2.49 6.27,3.89l5.08 2.98c0.91,0.74 0.46,0.3 1.11,1.12 -12.03,0.66 -35.23,-3.58 -43.63,-9.09 -5.72,-3.76 -11.48,-10.99 -16.54,-16.33 -1.96,-2.07 -6.92,-8.92 -8.82,-9.5 -1.82,14.28 -0.71,40.39 2.02,53.99 0.72,3.58 1.85,7.59 3.26,10.75 2.41,5.39 11.16,17.96 14.12,28.58 -6.82,-1.17 -26.28,-12.36 -32.77,-15.98 -8.88,-4.95 -25.15,-16.07 -30,-18.61 2.35,7.18 15.52,20.22 16.68,22.15 -3.84,0.33 -7.47,-0.77 -10,1.43 -2.26,1.97 -2.86,4.32 -5.24,6.17 -8.94,-3.82 -23.1,-14 -31.92,-19.84 -14.17,-9.38 -84.22,-62.33 -86.77,-68.16 3.67,-1.46 18.34,-4.05 22.66,-4.07 12.56,12.47 37.97,29.29 54.42,38.34 14.43,7.93 48.23,27.08 67.25,25.56 -1.7,-1.36 -2.44,-1.28 -4.78,-2.11 -15.12,-5.32 -55.68,-37.37 -57.6,-42.28zm-36.41 -22.4c2.29,0.28 4.99,3.03 6.72,4.24 8.59,5.99 24.8,16.79 30.75,22.28 1.95,1.8 3.33,3.46 5.54,5.2 1.94,1.53 3.71,3.19 5.82,4.93 4.12,3.39 7.62,6.46 11.86,9.64 1.87,1.4 3.98,3.01 6.14,4.61l18.83 12.27c-18.26,-0.64 -103.88,-51.71 -105.24,-60.91 3.02,-0.52 17.22,-2.54 19.57,-2.25zm50.08 12.05c-0.87,2.58 0.07,1.25 -2.35,3.1 -10.58,8.08 -14.37,5.07 -20.99,0.61l-20.69 -14.88c14.27,1.38 34.31,9.53 44.03,11.17zm149.15 14.85c3.56,-2.17 2.59,-0.33 6.21,-0.49 2.4,-0.11 7.67,-5 9.77,-6.97 12.16,-11.4 43.76,-21.74 63.59,-21.26 -1.79,3.64 -19.07,11.02 -23.5,12.96 -7.06,3.09 -5.7,1.52 -7.15,1.35 -2.36,-0.28 -1.02,-0.56 -3.57,0.66 -12.9,6.17 -8.14,-0.66 -17.31,2.88 -17.95,6.93 -10.75,11.42 -19.78,16.47 -8.6,4.81 -13.28,9.56 -18.06,8.62 -2.4,-0.47 -4.53,-1.69 -5.68,-3.62l15.48 -10.6zm45.28 -9.86c1.7,-0.88 14.09,-4.84 21.54,-8.51 5.08,-2.51 17.34,-10.37 19.77,-11.1l-8.98 23.86c-5.35,0.46 -28.81,-1.99 -32.33,-4.25zm34.49 4.38c1.25,-4.03 2.98,-8.25 4.53,-12.36 1.63,-4.29 1.65,-2.95 9.93,-6.77 5.11,-2.36 19.11,-8.91 24.08,-9.9 -0.06,9.99 -9.29,38.31 -15.38,41.07 -2.39,-4.85 -4.35,-6.96 -11.17,-6.8l0.44 -4.63 -12.43 -0.61zm-145.66 -35.68c7.97,-4.85 14.04,7.63 6.16,11.81 -6.78,3.6 -15.28,-6.27 -6.16,-11.81zm113.75 -4.95c2.54,1.6 11.36,12.29 12.76,16.78l-20.84 6.57c-6.41,2.46 -16.16,7.9 -18.75,8.8l0.51 -3.51c2.17,-0.99 5.56,-0.88 8.4,-2.17 14.44,-6.55 10.22,-12.92 8.84,-19.23l9.07 -7.24zm-259.49 18.42c1.22,-2.1 3.27,-4.04 4.81,-5.84 1.82,-2.14 2.68,-3.14 4.28,-5.12 3.08,-3.8 5.38,-6.76 8.09,-10.71 3.94,-5.75 11.71,-17.16 13.93,-23.63 4.92,2.87 21.02,28.39 22.08,32.23 -1.93,3.28 -7.6,5.77 -2.75,20.05 -5.82,-0.58 -17.23,-4.13 -23.57,-5.61 -21.54,-5.03 -12.48,-1.49 -26.86,-1.38zm106.85 -14.02c1.45,-4.17 1.6,-0.82 5.03,-6.28 2.24,-3.57 1.83,-5.3 3.23,-6.99 2.11,1.43 8.32,10.87 9.64,14.25l-7.62 5.51c-3.87,-1.74 -7.11,-3.64 -10.27,-6.48zm-31.37 3.61c2.54,-2.88 8.42,-11.92 17.17,-8.68 -0.7,2.56 -7.07,8.54 -9.23,11.31l-9.36 10.76c-2.09,-0.55 -1.09,-0.28 -2.54,-1.98 1.33,5.5 0.32,3.22 -1.97,6.84 -3.96,0.04 -5.64,-1.51 -9.3,-1.9 1.32,0.54 2.19,1.1 3.69,1.91 2.48,1.33 2.08,0.36 2.87,2.72 -3.33,1.88 -2.84,1.46 -6.91,-0.67 -1.56,-0.82 -5.37,-2.08 -6.51,-2.87 -2.78,-1.94 -4.01,-11.51 -1.68,-14.99 3.86,-5.78 5.57,-8.49 11,-8.62 7.19,-0.17 9.01,4.99 12.76,6.18zm185.83 -9.36c1.66,-3.03 6.34,-7.21 10.93,-7.76 2.88,4.36 2.72,5.8 7.6,8.24 3.74,1.87 7.38,3.7 11.73,4.2 2.54,7.56 6.77,11.21 2.74,12.26 -2.2,0.57 -3.87,-0.21 -9.34,-0.04 -3.53,0.11 -6.73,0.78 -10.05,0.84 -1.96,-2.09 -4.14,-6.4 -6.38,-9.32 -2.51,-3.28 -4.64,-5.58 -7.24,-8.43zm-111.96 -13.15c0.87,-0.66 0.41,-0.33 1.17,-1.07l3.14 -2.96c4.8,-3.82 11.41,-6.17 16.67,-2.46 10.79,7.61 2.18,21.57 2.13,22.32 6.88,2.57 7,1 10.92,6.72 -0.97,3.42 -2.89,3.8 -3.51,8.96 -0.91,7.65 1.78,5.64 3.16,9.33 -2.75,1.09 -5.11,3.27 -8.76,4.55 -5.58,1.94 -6.33,0.7 -11.46,0.67l-1.11 5.09c-5.48,-1.28 -13.06,-8.01 -18.78,-10 0.56,-3.04 1.83,-5.28 3.74,-7.53l4.81 -0.2 1.85 2.69c-0.66,-3.73 0.63,-4.76 3.41,-6.54 4.13,0.96 3.36,1.31 5,0.26l-4.64 -2.16c0.08,-2.73 -0.34,-4.38 0.85,-5.78l-4.87 -4.11 1.8 -7 -2.2 3.12c-0.55,1.06 -0.74,1.44 -1.25,2.71l-6.62 1.37c-1.87,0.69 -2.27,1.29 -3.53,2.61 -2.07,-0.2 -1.9,-0.43 -3.44,-0.75l-2.76 0.09 5.26 2.89c-0.02,4.31 0.66,4.18 -1.75,6.55 7.62,-0.5 5.53,6.58 3.5,10.58 -2.13,-0.67 -21.43,-12 -22.75,-13.35 2.4,-2.74 3.95,-3.17 7.85,-5.37 -0.34,-3.7 -3.68,-7.03 -3.8,-11.44 -0.15,-5.7 2.96,-6.03 6.04,-8.45 3.16,-2.49 1.64,-5.74 9.14,-5.64 5.2,0.07 7.33,2.66 10.75,4.32zm65.14 0.81c2.73,-2.56 3.49,-4.86 6.85,-7.01 2.63,-1.68 7.78,-3.31 11.23,-1.43 7.68,4.18 5.26,16.66 5.05,20.1 2.35,1.59 2.17,0.56 4.71,3.05 1.55,1.52 2.27,2.09 3.52,3.86 5.33,7.51 7.61,12.01 -2.59,18.48 -5.4,3.42 -5.9,2.74 -12.03,2.03 0.22,5.59 -0.97,8.13 -4.32,11.21 -1.94,1.78 -6.66,6.01 -8.4,7.14 -4.53,-0.12 -7.74,-2.61 -10.09,-4.78 -4.39,-4.07 -2.73,-4.01 -5.35,-9.38 -4.87,0.5 -9.05,2.6 -13.99,-0.8 -2.02,-1.39 -7.38,-6.93 -7.52,-9.31 -0.29,-5.19 2.95,-9.25 5.31,-11.5 4.48,-4.28 6.8,-0.83 12.51,-1.62 -3.64,-0.44 -8.36,-2.52 -9,-7.74 -1.07,-8.66 -1.12,-7.39 2.82,-12.55 2.1,-2.74 1.05,-3.34 3.86,-4.78 7.61,-3.88 13.47,2.12 17.42,5.03zm28.92 12.96c-1.68,-1.45 -2.02,-1.39 -3.44,-2.63 0.73,-5.36 0.05,-7.15 -0.29,-11.73 2.84,0.67 13.12,8.28 14.73,10.39 -1.05,1.32 -6.09,5.84 -7.68,6.79 -1.45,-0.92 -1.74,-1.45 -3.31,-2.81zm-189.28 3.24c-4.75,-9.03 -19.86,-30.26 -19.86,-30.26 6.92,0.58 22.29,6.89 25.79,10.92 1.28,1.47 0.75,1.63 1.73,2.99l6.65 6.83c4.74,3.46 7.98,0.6 11.85,6.33 -1.07,1.61 -4.21,4.5 -5.48,5.8 -3.09,-1.87 -9.52,-8.84 -12.22,-9.28 0.76,3.92 0.74,0.9 2.26,4.15 -6.84,-0.07 -5.81,1.22 -10.71,2.52zm104.11 -39.46c8.3,-3.42 13.33,8.44 5.69,11.96 -8.85,4.08 -12.98,-8.96 -5.69,-11.96zm127.52 14.33c3.16,0.17 3.01,-0.51 3.95,-2.59 2.86,0.41 9.54,3.45 12.37,4.77 0.73,0.34 1.11,0.49 1.78,0.94l1.63 1.36c-1.3,3.61 -3.5,4.34 -4.91,6.93 -1.71,3.16 1.08,3.36 1.3,7.92 -4.25,0.99 -5.44,2.19 -9.02,3.75 -4.12,1.79 -5.97,-0.47 -9.18,-1.88 -10.48,-4.61 -8.63,-7.35 -10.76,-14.11 -8.48,-1.2 -14.5,1.49 -19.96,-4.78 -1.63,-1.87 -1.14,-2.47 -2.29,-4.38 -2.1,-3.51 -1.96,0.51 -2.88,-5.37 -0.46,-2.9 -1.09,-2.14 -0.41,-7.08 0.61,-4.46 -0.75,-8.69 3.38,-9.4 3.02,-0.52 7.18,1.33 9.85,2.5 2.25,0.99 5,2.62 6.73,5.26 1.36,2.07 0.7,2.89 2.3,5.76l1.45 2.47c9.13,1.23 3.39,3.77 9.02,5.91 1.95,0.74 3.87,1.93 5.65,2.02zm-63.92 -5.03c6.4,0.97 11.28,-0.71 15.67,-3.74 9.47,-6.52 1.58,-9.41 8.28,-10.1 0.22,3.95 -1.1,6.51 -0.41,11.04 1.06,6.91 1.65,3.28 3.94,7.67 1.96,3.77 1.83,4.29 5.56,6.62 2.89,1.81 6.07,1.39 8.8,2.72 -0.71,2.38 -6.13,6.43 -7.54,7.06 -3.09,-1.8 -4.88,-3.82 -8.32,-6.13 -2.79,-1.87 -5.73,-3.47 -8.26,-5.16 -2.96,-1.98 -3.32,-5.55 -7.42,-6.74 -4.2,-1.22 -7.57,0.48 -10.3,-3.24zm-126.21 -23.14c0.53,-0.52 0.47,-0.46 1.04,-1.18l2.34 -3.09c1.06,-1.14 2.13,-2.01 3.73,-2.97 2.8,-1.68 7.77,-3.01 11.07,-1.15 7.56,4.26 5.04,17.64 4.94,20.21 4.22,2.37 5.69,3.43 8.28,6.88 6.13,8.19 6.4,12.52 -3.16,18.64 -4.77,3.05 -6.33,2.5 -11.63,1.61 0.23,7.84 -3.47,11.89 -8.55,14.69 -2.6,-0.57 -5.8,-2.89 -8.06,-4.2 -4.46,-2.57 -4.59,-1.56 -9.95,-1.59l-1.19 -4.65c-5.44,0.59 -8.38,2.58 -13.82,-0.49l-7.87 -7.28c-0.63,-5.5 1.42,-9.97 4.01,-12.83 4.49,-4.96 7.32,-2.49 10.08,-2.89 1.81,-0.27 0.71,0.04 1.83,-0.68 -5.65,-1.13 -6.92,-2.51 -7.46,-8.58 -0.81,-9.09 0.21,-6.58 3.81,-11.89 1.67,-2.47 0.73,-2.9 3.91,-4.02 6.24,-2.21 9.9,0.32 14.54,3.94l1.66 1.21c0.07,-0.13 0.29,0.21 0.45,0.3zm177.96 18.52c-0.12,-0.12 -0.23,-0.33 -0.3,-0.42 -0.06,-0.09 -0.22,-0.31 -0.3,-0.41l-1.45 -1.87c-2.25,-3.14 0.38,-0.91 -5.77,-8.84l2.34 -3.13c5.25,-0.36 9.81,6.91 11.07,11.01l-4.12 0.52 -1.48 3.14zm-68.85 -23.46c8.83,-3.84 12.82,8.94 5.84,12.16 -4.23,1.95 -8.22,-0.02 -9.5,-3.44 -1.56,-4.19 -0.05,-7.11 3.66,-8.72zm-55.21 6.29c0.06,-16.44 15.67,-21.98 20.69,-7.65 2.76,7.89 1.29,3.98 0.1,10.88 -0.89,5.12 1.88,6.12 4.2,10.3 1.31,2.36 1.45,2.37 3.73,3.64 2.94,1.64 2.93,0.73 3.07,4.65 0.13,3.7 -0.76,10.32 -1.23,14.16 -0.37,3.08 -0.05,9.88 -2.52,11.49 -1.65,-2.01 0.22,-2.39 0.19,-7.45 -0.06,-10.6 -6.01,-12.64 -10.57,-15.5l2.02 -4.36 4.78 -0.56c-3.49,-2.72 -3.19,0.86 -5.76,-5.08 -1.47,-3.4 0.86,-0.74 -5.77,-4.33l-0.55 -7.03c-2.31,5.74 1.09,7.16 -6.53,8.52l-0.51 0.58 -1.99 4.9 -5.05 0.7c0.53,0.36 -0.01,0.17 1.54,0.69l3.15 0.74c2.73,6.34 1.77,2.91 -0.26,7.59 1.01,-1.16 2.57,-2.67 4.74,-0.96 -1.58,1.96 -5.45,3.64 -7.64,6.29 -1.77,-0.55 -3.08,-1.64 -5.23,-2.42l-4.71 -1.19c-1.69,-0.57 -0.43,0.12 -1.45,-0.71 0.99,-0.56 2.17,-1.08 3.63,-1.66l3.28 -1.79c-6.83,0.31 -7.13,1.68 -10.88,-3.95 -3.37,-5.06 -3.79,-3.4 -3.02,-10.84 1.39,-13.54 10.69,-10.47 18.56,-9.65zm-109.2 -3.87c9.43,-2.88 17.41,-5.31 27.9,-6.06 4.59,-0.33 20.71,-2.34 23.98,0.97 1.02,1.03 2.78,3.14 3.33,4.63 -3.07,-1.05 -4.55,-4.16 -9.58,-4.99 -4.05,-0.66 -9.04,0.18 -11.19,2.97 -1.36,1.76 -5.37,7.64 -5.65,9.4 -0.56,3.45 0.69,9.99 1.62,12.78 -3.69,2.94 -9.16,5.28 -9.82,14.25 -3.36,-0.91 -8.68,-4.81 -12.68,-6.47 -5.47,-2.29 -8.52,-3.38 -15.06,-3.94 0.12,-2.45 2.88,-8.24 3.9,-11.38 1.21,-3.71 1.9,-8.79 3.25,-12.17zm32.11 -8.68c0.87,-3.53 1.07,-6.92 3.05,-9.9 4.3,1.01 6.04,0.98 8.4,3.67 1.79,2.05 3.74,3.98 4.77,6.45l-16.23 -0.23zm137.11 3.84c-14.5,0.29 -2.06,6.34 -16.36,2.3 -8.29,-2.34 -9.52,-3.6 -8.36,-13.36 0.65,-5.47 1.65,-4.19 4.51,-7 2.21,-2.17 2.36,-4.15 7.01,-4.52 8.44,-0.66 9.88,5.47 14.12,8.18 4.08,-1.7 5.77,-7.18 14.82,-6.43 6.17,0.51 8.05,5.87 8.05,12.47 0,4.04 -1.33,6.38 -2.28,9.4 1.86,2.9 2.41,0.66 6.97,8.67 1.53,2.69 4.11,8.15 2.27,11.7 -1.1,2.12 -5.78,5.21 -8.66,6.29 -6.26,2.34 -6.17,0.69 -11.82,0.07 -0.76,6.15 -3.84,9.15 -8.68,11.29 -9.53,-4.03 -5.3,-2.66 -15.45,-1.69 -2.55,-3.25 -3.72,-5.67 -3.93,-10.97 -7.08,-0.09 -12.3,-0.12 -15.33,-4.74l-4.05 -6.2c-2.07,-5.06 5.66,-16.38 13.57,-14.14 1.18,0.33 2.78,1.1 3.89,1.42 2.72,0.76 0.07,-0.24 3.05,0.39 6.98,1.48 6.06,5.18 6.29,8.18l-2.74 1.64c5.79,-0.53 2.33,-0.22 6.68,2.85l-2.36 8.72 3.95 -7.62c4.28,-0.04 5.05,-0.47 6.42,1.53l0.3 -1.48c0.34,-1.13 -0,-0.56 0.69,-1.47 3.4,-4.45 4.63,-1.4 7.89,-1.39 1.45,0 0.53,0.12 1.37,-0.28l-5.56 -2.66c-0.47,-7.16 0,-5.51 1.43,-6.12l-5.68 -4.05 2.62 -9.04c-0.97,2.16 -3.19,6.05 -4.65,8.06zm-34.67 2.28c-2.26,-7.42 -5.01,-10.86 -1.95,-19.22 5.94,0.07 5.56,0.76 12.05,-0.44 -2.01,4.78 -2.61,10.06 -1.93,16.55 -4.55,0.52 -4.95,2.85 -8.16,3.11zm-87.74 -26.58c1.66,-0.69 2.67,-1.15 3.87,-2.07l2.21 -1.93c0.11,-0.09 0.32,-0.26 0.41,-0.34l0.87 -0.68c0.24,5.42 2.99,11.15 5.86,14.24 -1.22,2.54 -2.55,2.89 -4.06,7.19 -1.59,-0.5 -4.59,-4.66 -5.81,-6.08 -3.43,-4 -3.47,-3.79 -3.36,-10.34zm44.96 5.81c-0.2,6.58 -6.8,8.87 -10.91,4.73 -4.1,-4.13 -1.84,-9.68 3.99,-11.05l0.49 3.58c-0.1,0.07 -0.3,0.18 -0.41,0.26 -3.35,2.32 -3.28,5.4 1.98,5.1 0.73,-0.95 0.23,-0.31 0.91,-1.57l3.95 -1.07zm124.18 -8.66c0.72,-2.79 10.36,-8.23 15.77,-5.82 1.44,4.32 -2.25,11.93 -5.16,13.76 -2.87,-5.51 -4.33,-5.87 -10.61,-7.94zm-82.84 -14.6c4.65,-1.39 10.77,-4.21 16.17,-3.36 0.92,2.08 0.96,5.17 1.35,7.79l6.11 2.23c-1.43,2.89 -3.59,4.28 -5.64,7.69 -10.23,17.1 -19.96,5.97 -24.6,4.07 -2.6,2.19 -1.89,3.39 -8.34,8.65 -2.8,2.28 -6.08,6.32 -8.45,8.13 -3,-1.21 -6.64,-4.3 -8.49,-6.75l-8.22 -6.59c-3.25,-1.45 -4.04,-0.83 -5.52,-3.91 1.8,-3.06 5.98,-5.16 9.1,-7.06 8.26,-5.02 15.18,-3.19 28.47,-3.98 6.13,-0.36 7.86,-1.5 8.06,-6.91zm-55.41 2.92c0.36,-6.08 6.38,-14.83 13.58,-13.47 8.33,1.58 9.12,12.77 9.9,17.14 -5.32,1.36 -7.9,4.88 -12.56,6.71l0.08 -4.96 -2.32 6.25c-3.74,1.69 -4.44,1.57 -6.9,-0.68 1.26,4.16 0.92,2.96 -2.02,6.58l-6.89 -0.59 6.58 2.93c0.48,6.84 1.01,3.58 -1.05,6.5 3.19,-0.89 3.83,-0.11 6.42,2.06l-0.69 8.39 2.8 -7.92 6.07 -1.83c0.9,-1.33 1.74,-2.41 2.9,-3.57 2.57,0.33 4.96,1.92 6.24,3.38 6.76,7.67 9.26,4.52 3.87,17.66 -10.16,0.44 -8.54,1.59 -14.14,5.9 -3.68,-1.32 -5.09,-2.9 -7.52,-5.74 -2.23,-2.6 -1.3,-0.54 -3.14,-3.51 -2.93,-4.73 -5.74,-7.89 -13.72,-5.55 -1.79,0.52 -3.29,1.34 -4.53,2.16 -1.75,1.15 -1.82,1.89 -3.45,1.57 -1.73,-15.8 8.88,-14.52 12.09,-15.83 -6.1,-2.01 -6.91,1.82 -10.54,-5.2 -3.06,-5.92 -3.28,-5.01 -1.37,-11.37 0.84,-2.81 0.18,-6.8 7.11,-8.9 4.93,-1.49 8.8,1.28 13.22,1.89zm-68.05 13.04c-9.04,-5.77 5.99,-10.53 8.72,-10.88 -2.86,7.54 -0.26,3.77 0.31,7.87 -8.82,1.43 -4.77,1.81 -9.04,3.01zm105.44 -10.42c-6.36,-0.03 -15.49,0.83 -12.65,-5.44 1.82,-3.99 12.29,-1.57 15.16,0.38 -3.09,3.65 -1.06,1.68 -2.52,5.05zm47.32 -4.02c0.9,-4.06 5.44,-10.95 8.56,-12.36 6.64,-3 5.74,9.42 5.75,14.11 -2.65,-1.38 -2.77,-2.45 -6.61,-2.61 -3.05,-0.13 -4.87,0.74 -7.7,0.86zm-142.84 14.16c1.67,-3.39 0.13,-2.94 3.68,-4.33 15.83,-6.18 11.06,-12.5 15.03,-15.09 1.91,-1.24 13.84,-4.56 17.49,-4.25 -0.83,11.07 -0.48,20.78 -9.92,23.84 -4.62,1.5 -6.12,-0.08 -10.01,0.19 -0.68,1.85 -0.62,4.07 -1.09,6.04l-4.74 16.26c-5.13,0.77 -8.78,-1.62 -12.45,-2.19 -1.77,-0.27 -1.35,0.1 -3.63,-0.31 -9.22,-1.65 -5.74,1.13 -10.66,-0.86 -1.33,-3.35 3.59,-10.46 5.07,-12.99 2.48,-4.26 4.98,-7.4 11.23,-6.33zm-10.92 2.27c-1.46,3.67 -9.31,12.94 -7.15,17.45 2.9,4.16 5.11,1.23 9.39,1.6 1.95,0.17 7.94,1.06 9.18,2.44l-21.93 5.85c-1.06,5.48 -1.87,9.92 -3.81,15.13l-5.15 11.69c-4.67,11.06 -12.17,21.96 -19.64,31.32 -3.33,4.17 -9.98,13.37 -13.57,15.28 -3.83,2.04 -18.95,2.99 -24.53,4.18 -2.82,0.6 -5.36,1.6 -7.99,2.27 1.83,4.51 9.75,9.57 13.6,13.09 1.6,1.47 1.73,1.37 3.36,2.68 33.06,26.6 66.83,53.97 104.24,75.13 0.9,8.8 2.27,11.27 7.16,15.6 3.92,3.47 8.68,6.76 14.69,8.88 14.69,5.19 27.39,0.74 42.46,0.31 -0.3,3.06 -3.75,20.37 -4.71,22.14 -3.11,5.71 -6.61,11.23 -9.32,17.47 -6.38,14.7 -7.23,29.02 -7.24,46.4 -0.01,11.33 1.1,63.85 9.86,70.59 4.56,3.52 14.32,5.66 20.83,5.84l-1.09 -10.37c6.09,-1.7 13.47,-3.66 15.87,-9.76 5.38,-13.69 6.94,-29.43 8.16,-44.19 0.62,-7.42 0.69,-17.57 1.8,-24.36l0.55 0.97c2.43,5.71 5.8,34.73 6.58,40.49 1.99,14.61 3.67,28.77 5.18,43.55 4.35,-0.65 9.3,-4.28 11.94,-6.4 4.99,-4 4.36,-5.5 4.32,-13.98 -0.08,-32.94 -11.98,-75.01 -24.13,-104.94 -1.89,-4.64 -5.34,-11 -5.73,-15.84 -0.52,-6.32 -2.66,-13.3 -3.02,-18.6l29.03 -6.03c12.96,-3.02 27.75,-7.08 38.97,-14.06 5.14,-3.2 2.47,-4.14 9.52,-8.59 15.08,-9.53 46.83,-34.2 56.04,-50.09 1.15,-1.98 1.47,-4.54 2.59,-6.14 4.93,-7.02 5.08,-4.71 10.02,-16.87 2.56,-6.3 4.28,-13.7 5.85,-20.52 0.62,-2.71 1.45,-5.59 0.24,-7.91 -3.53,-0.06 -12.05,3.99 -15.65,5.46 -3.07,1.25 -11.36,5.58 -14.25,5.91 -2.63,-3.94 -1.09,-5.09 -0.11,-9.35l-3.67 2 -4.66 -11.63c4.12,-1.63 6.44,-2.89 10.77,-4.24 0.52,-5.19 -3.06,-5.73 -1,-8.98 1.74,-2.75 4.28,-3.73 4.59,-7.75 -2.29,-2.83 -14.75,-8.31 -19.67,-9l-0.67 3.05c-6.17,-0.62 -14.7,-12.15 -7.74,-9.93 3.2,1.02 -1.02,6.8 7.19,6.81 -2.38,-5.74 -3.69,-1.15 -4.61,-11.04 -0.48,-5.21 -0.36,-10.81 0.47,-15.6 -5.38,0.38 -15.75,3.7 -20.78,5.46 -7.2,2.51 -5.72,0.01 -10.74,0.65 -5.55,0.71 -2.13,3.98 -8.13,5.72l-3.95 -8.35c1.2,-2.55 6.28,-7.69 8.76,-10.62 6.46,-7.63 14.02,-3.09 22.54,-16.44 9.19,-14.38 2.34,-20.19 -11.77,-11.75 -2.79,1.67 -3.79,1.99 -4.95,4.51 -1.23,2.67 -2.3,4.29 -3.38,6.62 -2.72,5.87 -2.46,9.33 -6.03,13.47 -1.7,1.97 -7.63,8.49 -10.13,8.33 -0.24,-1.57 1.46,-7.38 1.21,-11.61 -0.26,-4.51 -1.62,-8.04 -4.25,-10.21 -8.26,-6.83 -17.14,2.76 -21.1,3.65 -3.35,-7.09 9.41,-4.57 9.18,-26.32 -0.19,-17.46 -10.99,-12.3 -16.7,-0.86 -2.81,5.63 -1.06,3.68 -0.88,9.57 0.14,4.64 0.43,6.5 0.94,10.58 -4.7,0.15 -5.43,-0.36 -10.65,0.5 2.11,-5.17 6.76,-8.4 7.75,-12.03 -1.73,-1.17 -3.95,-2.15 -6.75,-3.22 -0.73,-11.21 -4.8,-9.8 -17.25,-5.43 -1.96,0.69 -4.5,1.99 -6.55,2.29 -1.68,0.25 -2.97,-0.04 -4.51,0.15 -1.73,0.2 -2.29,0.47 -3.08,1.81 3.69,2.55 6.36,-1.13 10.31,0.08 -0.46,1.64 0.1,1.41 -2.27,2.37 -2.56,1.04 -6.26,1.27 -8.97,0.73 -2.72,-0.54 -2.29,-0.55 -3.04,-2.88 0.66,-0.35 1.14,-0.43 1.72,-0.75l0.9 -0.51c1.2,-0.78 0.67,-0.39 1.32,-1.05 -5.16,-3.48 -12.61,-3.11 -19.18,-2.67 -3.07,-4.51 -6.4,-10.81 -13.96,-9.38 -5.93,1.12 -9.77,6.89 -11.49,12.84 -3.56,-0.53 -6.87,-2.51 -11.05,-1.6 -4.27,0.93 -6.99,4.35 -8.69,4.53 -0.31,-5.45 1.58,-8.98 1.04,-13.08l-7.79 -0.01c-3.93,-7.5 -5.71,-6.38 -11.84,-1.36 -9.62,7.88 -9.68,12.15 -19.14,13.85 -2.71,0.49 -5.48,1.76 -7.8,2.86 -10.56,5.02 -4.54,8.51 -2.29,12.15z"/>
  <path class="fil0" d="M125.04 81.9c-11.29,-3.64 -5.5,-1.87 -7.27,-0.01 2.39,0.83 3.85,2.14 6.04,2.88l0.18 4.51 -3.38 1.64c1.48,1.15 -0.11,0.71 2.26,0.92 0.59,0.05 1.54,-0.23 2.29,-0.39 1.05,2.73 2.47,2.39 2.6,3.97 0.15,1.79 -1.35,1.72 -0.61,3.89 1,2.9 -1.77,-0.64 1.36,2.05 1.63,-6.27 2.93,-5.19 6.72,-5.6 0.63,1.87 0.59,1.4 2.01,2.74 0.95,-1.58 0.54,-3.1 0.67,-4.52 2.72,-0.62 1.29,-1.85 3.36,-1.94 1.26,-0.05 0.32,0.42 2.36,0.65 5.46,0.63 1.64,0.77 3.68,-1.4 -1.64,-0.63 -3.9,-0.93 -4.88,-2.39 -1.41,-2.1 -0.71,-4.07 0.85,-5l-5.37 -4.7c0.3,-2.93 1.14,-2.84 1.34,-6.71 -5.61,3.08 -1.33,5.29 -7.27,5.31 -3.58,0.01 -2.9,0.36 -4.17,1.38 -1.33,1.07 -1.76,1.24 -2.78,2.7z"/>
 </g>
</svg>
