<?xml version="1.0" encoding="UTF-8"?>
<!DOCTYPE svg PUBLIC "-//W3C//DTD SVG 1.1//EN" "http://www.w3.org/Graphics/SVG/1.1/DTD/svg11.dtd">
<!-- Creator: CorelDRAW 2019 -->
<svg xmlns="http://www.w3.org/2000/svg" xml:space="preserve" width="31.3796mm" height="5.4104mm" version="1.1" style="shape-rendering:geometricPrecision; text-rendering:geometricPrecision; image-rendering:optimizeQuality; fill-rule:evenodd; clip-rule:evenodd"
viewBox="0 0 203.33 35.06"
 xmlns:xlink="http://www.w3.org/1999/xlink"
 xmlns:xodm="http://www.corel.com/coreldraw/odm/2003">
 <defs>
  <style type="text/css">
   <![CDATA[
    .fil0 {fill:#ED9416;fill-rule:nonzero}
   ]]>
  </style>
 </defs>
 <g id="Layer_x0020_1">
  <metadata id="CorelCorpID_0Corel-Layer"/>
  <path class="fil0" d="M196.12 21.81c0.19,-0.17 0.51,-0.32 0.8,-0.47 -0.02,0.02 -0.03,0.05 -0.04,0.07 -0.29,0.36 -0.61,0.7 -0.96,1 -0.25,0.21 -0.52,0.38 -0.8,0.54 0,-0 0,-0.01 0.01,-0.01 0.29,-0.42 0.62,-0.8 1.01,-1.13zm-9.55 9.75c-0.42,-0.48 -0.84,-0.96 -1.26,-1.44 0.08,-0.04 0.15,-0.08 0.23,-0.12 0.76,0.41 1.23,1.12 1.34,1.98 -0.13,-0.18 -0.24,-0.34 -0.31,-0.42zm-17.87 0.1c-0.42,-0.66 -0.52,-1.31 -0.51,-2 0.51,0.44 1.06,0.83 1.48,1.4 0.28,0.37 0.95,1.48 1.07,2.15 -0.78,-0.17 -1.73,-1.08 -2.04,-1.55zm-9.63 -9c1.77,-1.17 3.64,-2.09 5.85,-2.23 1.07,-0.06 1.13,0.33 0.29,0.92 -0.49,0.34 -1.28,0.4 -1.85,0.51 -1.41,0.29 -2.83,0.55 -4.25,0.81 -0.01,-0.01 -0.03,-0.01 -0.05,-0.02zm-14.79 8.05c-2.62,0.03 -4.19,-2.63 -2.03,-4.8 0.99,-1 2.39,-1.67 3.75,-2.1 1.28,2.51 2,6.86 -1.72,6.9zm-14.4 -13.46c0.14,-0.63 0.33,-1.26 0.57,-1.82 0.21,-0.49 0.47,-0.96 0.78,-1.39 0.23,-0.32 1.03,-1.54 1.12,-0.34 0.06,0.82 -1.31,2.06 -1.74,2.62 -0.24,0.31 -0.49,0.61 -0.73,0.92zm1.58 8.59c-2.55,0.38 -4.27,-1.2 -6.68,-2.11 -0.26,-0.1 -0.51,-0.17 -0.77,-0.25 2.72,-0.41 6.11,-0.02 7.44,2.35zm66.12 -2.58c0.15,-0.16 0.29,-0.32 0.42,-0.47 0.72,-0.87 1.7,-2.54 0.31,-3.33 -1.14,-0.66 -2.76,0.68 -3.5,1.47 -0.89,0.95 -1.59,2.19 -1.82,3.49 -0.99,0.48 -1.96,1.05 -2.93,1.63 3.54,-5.44 0.47,-13.28 -6.66,-13.21 -3.41,0.03 -7.53,1.99 -7.84,5.8 -0.32,4 3.64,6.2 7.12,5.03 0.99,-0.33 1.42,-1.46 0.99,-2.4 -0.71,-1.57 -2.09,-0.27 -3.23,-1.04 -1.56,-1.05 -0.26,-2.91 0.85,-3.73 1.36,-1 3.56,-0.6 4.89,0.24 3.08,1.95 2.51,6.34 0.18,8.66 -4.45,4.42 -11.66,2.73 -16.95,1.18 -2.26,-0.67 -4.64,-1.65 -7.06,-2.63 1.47,-0.28 2.92,-0.65 4.13,-1.36 1.17,-0.69 2.37,-2.31 0.78,-3.32 -1.39,-0.89 -3.96,-0.1 -5.35,0.43 -1.49,0.57 -2.81,1.41 -3.82,2.6 -3.65,-1.32 -7.35,-2.26 -10.89,-1.81 -1.51,-1.66 -3.5,-2.87 -5.69,-3.53 -3.08,-0.92 -6.26,-0.75 -9.31,0.02 0.55,-0.71 1.13,-1.44 1.48,-2.25 0.43,-1 0.57,-2.91 -0.83,-3.23 -1.37,-0.31 -2.5,1.15 -3.07,2.18 -0.77,1.38 -1.02,2.84 -0.79,4.36 -0.66,0.26 -1.31,0.54 -1.95,0.84 -4.71,2.23 -9.81,5.23 -12.38,9.93 -0.17,0.32 0.25,0.68 0.51,0.4 0.22,-0.23 0.44,-0.46 0.68,-0.69 0.08,0.07 0.21,0.09 0.29,0 0.58,-0.63 1.14,-1.23 1.73,-1.8 0.66,-0.55 1.37,-1.09 2.12,-1.63 4.8,-0.24 8.16,3.85 12.95,2.24 0.45,-0.15 0.77,-0.62 0.62,-1.1 -1.08,-3.57 -4.28,-4.89 -7.69,-4.68 6.29,-3.09 13.44,-4.43 18.13,-0.24 -1.23,0.5 -2.44,1.21 -3.61,2.19 -2.38,1.99 -3.98,4.97 -1.67,7.7 1.97,2.34 5.91,3.34 8.62,1.72 3.02,-1.8 3.13,-5.95 2.02,-8.92 -0.09,-0.24 -0.19,-0.47 -0.29,-0.7 5.02,-0.12 10.22,3.02 14.68,4.72 0.8,0.3 1.64,0.61 2.51,0.92 -0.26,1.4 0.18,2.96 1.05,4.06 0.87,1.1 2.75,2.38 4.25,1.98 1.6,-0.43 0.7,-2.74 0.22,-3.71 -0.13,-0.26 -0.3,-0.53 -0.48,-0.8 4.19,1.06 8.61,1.51 12.45,0.27 0.03,0.14 0.09,0.29 0.21,0.42 0.58,0.67 1.16,1.33 1.75,1.98 0.48,0.53 0.93,1.27 1.67,1.41 0.45,0.09 0.91,-0.12 1.04,-0.59 0.41,-1.45 0.26,-3.21 -0.86,-4.32 -0.1,-0.1 -0.22,-0.2 -0.34,-0.29 0.44,-0.17 0.87,-0.34 1.29,-0.52 1.84,-0.78 3.5,-1.92 5.35,-2.66 2.23,-0.89 6.17,-2.02 6.74,1.42 0.3,1.81 -1.53,3.33 -2.96,1.8 1.63,-0.73 0.22,-3.19 -1.41,-2.42 -2.56,1.21 -2.15,4.54 0.37,5.54 2.51,0.99 6.19,-1.19 6.7,-3.81 0.63,-3.26 -2.91,-5.37 -5.68,-5.44z"/>
  <path class="fil0" d="M8.22 22.95c0,0 0,0.01 0.01,0.01 -0.28,-0.16 -0.55,-0.33 -0.8,-0.54 -0.35,-0.3 -0.67,-0.64 -0.96,-1 -0.01,-0.02 -0.03,-0.04 -0.04,-0.07 0.28,0.15 0.6,0.3 0.8,0.47 0.38,0.34 0.71,0.72 1.01,1.13zm8.23 9.03c0.12,-0.86 0.58,-1.56 1.34,-1.98 0.08,0.04 0.15,0.08 0.23,0.12 -0.42,0.48 -0.84,0.96 -1.26,1.44 -0.07,0.08 -0.18,0.24 -0.31,0.42zm16.15 1.24c0.12,-0.67 0.79,-1.78 1.07,-2.15 0.42,-0.57 0.96,-0.96 1.48,-1.4 0.01,0.68 -0.08,1.34 -0.51,2 -0.31,0.47 -1.26,1.39 -2.04,1.55zm11.62 -10.53c-1.42,-0.27 -2.84,-0.53 -4.25,-0.81 -0.57,-0.12 -1.36,-0.17 -1.85,-0.51 -0.83,-0.58 -0.77,-0.98 0.29,-0.92 2.21,0.13 4.08,1.05 5.85,2.23 -0.01,0.01 -0.03,0.01 -0.05,0.02zm13.11 1.13c1.36,0.43 2.76,1.11 3.75,2.1 2.16,2.17 0.6,4.83 -2.03,4.8 -3.72,-0.04 -3,-4.39 -1.72,-6.9zm15.4 -7.48c-0.44,-0.57 -1.8,-1.81 -1.74,-2.62 0.09,-1.2 0.89,0.01 1.12,0.34 0.31,0.43 0.57,0.91 0.78,1.39 0.25,0.56 0.43,1.19 0.57,1.82 -0.24,-0.31 -0.49,-0.61 -0.73,-0.92zm6.59 7.16c-0.25,0.07 -0.51,0.15 -0.77,0.25 -2.41,0.9 -4.13,2.49 -6.68,2.11 1.33,-2.37 4.72,-2.77 7.44,-2.35zm-79.24 5.22c0.51,2.62 4.19,4.8 6.7,3.81 2.52,-1 2.92,-4.33 0.37,-5.54 -1.63,-0.77 -3.04,1.69 -1.41,2.42 -1.44,1.53 -3.26,0.01 -2.96,-1.8 0.57,-3.44 4.5,-2.31 6.74,-1.42 1.85,0.74 3.51,1.88 5.35,2.66 0.42,0.18 0.85,0.36 1.29,0.52 -0.12,0.09 -0.23,0.19 -0.34,0.29 -1.12,1.11 -1.27,2.87 -0.86,4.32 0.13,0.47 0.59,0.68 1.04,0.59 0.74,-0.14 1.19,-0.88 1.67,-1.41 0.59,-0.66 1.17,-1.32 1.75,-1.98 0.12,-0.14 0.18,-0.28 0.21,-0.42 3.83,1.24 8.26,0.79 12.45,-0.27 -0.18,0.27 -0.35,0.54 -0.48,0.8 -0.49,0.97 -1.39,3.27 0.22,3.71 1.5,0.41 3.38,-0.88 4.25,-1.98 0.87,-1.1 1.31,-2.66 1.05,-4.06 0.87,-0.3 1.71,-0.61 2.51,-0.92 4.46,-1.69 9.66,-4.83 14.68,-4.72 -0.1,0.23 -0.2,0.46 -0.29,0.7 -1.11,2.96 -1,7.11 2.02,8.92 2.71,1.62 6.65,0.62 8.62,-1.72 2.3,-2.73 0.7,-5.71 -1.67,-7.7 -1.17,-0.98 -2.38,-1.69 -3.61,-2.19 4.69,-4.19 11.84,-2.85 18.13,0.24 -3.41,-0.22 -6.6,1.1 -7.69,4.68 -0.15,0.48 0.18,0.95 0.62,1.1 4.78,1.61 8.15,-2.48 12.95,-2.24 0.75,0.54 1.46,1.08 2.12,1.63 0.58,0.57 1.14,1.18 1.72,1.8 0.09,0.09 0.21,0.07 0.29,-0 0.24,0.23 0.47,0.46 0.68,0.69 0.26,0.28 0.69,-0.08 0.51,-0.4 -2.58,-4.71 -7.67,-7.7 -12.38,-9.93 -0.64,-0.3 -1.29,-0.58 -1.95,-0.84 0.24,-1.51 -0.01,-2.97 -0.79,-4.36 -0.57,-1.02 -1.71,-2.49 -3.07,-2.18 -1.4,0.32 -1.25,2.24 -0.83,3.23 0.35,0.82 0.93,1.54 1.48,2.25 -3.05,-0.78 -6.23,-0.94 -9.31,-0.02 -2.19,0.65 -4.18,1.86 -5.69,3.53 -3.54,-0.45 -7.24,0.49 -10.89,1.81 -1.01,-1.19 -2.33,-2.03 -3.82,-2.6 -1.39,-0.53 -3.95,-1.31 -5.35,-0.43 -1.6,1.02 -0.39,2.63 0.78,3.32 1.2,0.71 2.66,1.08 4.13,1.36 -2.43,0.99 -4.8,1.97 -7.06,2.63 -5.29,1.56 -12.51,3.24 -16.95,-1.18 -2.33,-2.31 -2.9,-6.71 0.18,-8.66 1.33,-0.84 3.53,-1.24 4.89,-0.24 1.11,0.82 2.4,2.68 0.85,3.73 -1.14,0.77 -2.52,-0.53 -3.23,1.04 -0.43,0.94 0,2.07 0.99,2.4 3.48,1.17 7.44,-1.03 7.12,-5.03 -0.3,-3.81 -4.42,-5.77 -7.84,-5.8 -7.13,-0.07 -10.2,7.77 -6.66,13.21 -0.97,-0.58 -1.94,-1.15 -2.93,-1.63 -0.23,-1.3 -0.93,-2.54 -1.82,-3.49 -0.74,-0.79 -2.36,-2.12 -3.5,-1.47 -1.39,0.8 -0.41,2.46 0.31,3.33 0.13,0.16 0.27,0.32 0.42,0.47 -2.77,0.07 -6.31,2.18 -5.68,5.44z"/>
  <g id="_751143448">
   <g>
    <g>
     <path class="fil0" d="M117.17 3.89c-2.29,-2.55 -5,-3.89 -7.84,-3.89 -3.16,0 -6.02,1.93 -7.69,5.12 -1.67,-3.19 -4.5,-5.12 -7.63,-5.12 -2.84,0 -5.47,1.31 -7.84,3.89 -2.77,3.03 -4.33,9.9 1.11,15.05 2.51,2.37 13.84,14.29 13.95,14.41 0.11,0.12 0.27,0.19 0.43,0.19l0 0c0.16,0 0.32,-0.07 0.43,-0.19 0.11,-0.12 11.47,-12.01 13.96,-14.41 5.33,-5.16 3.81,-12.03 1.11,-15.04z"/>
    </g>
   </g>
  </g>
 </g>
</svg>
