<?xml version="1.0" encoding="UTF-8"?>
<!DOCTYPE svg PUBLIC "-//W3C//DTD SVG 1.1//EN" "http://www.w3.org/Graphics/SVG/1.1/DTD/svg11.dtd">
<!-- Creator: CorelDRAW 2019 -->
<svg xmlns="http://www.w3.org/2000/svg" xml:space="preserve" width="50.2mm" height="39.7242mm" version="1.1" style="shape-rendering:geometricPrecision; text-rendering:geometricPrecision; image-rendering:optimizeQuality; fill-rule:evenodd; clip-rule:evenodd"
viewBox="0 0 5014.21 3967.84"
 xmlns:xlink="http://www.w3.org/1999/xlink"
 xmlns:xodm="http://www.corel.com/coreldraw/odm/2003">
 <defs>
  <style type="text/css">
   <![CDATA[
    .str0 {stroke:black;stroke-width:19.98;stroke-miterlimit:22.9256}
    .fil1 {fill:#011629}
    .fil0 {fill:#03182B}
    .fil4 {fill:#89969C}
    .fil5 {fill:#FBFBFB}
    .fil2 {fill:url(#id0)}
    .fil3 {fill:url(#id1)}
   ]]>
  </style>
  <linearGradient id="id0" gradientUnits="userSpaceOnUse" x1="3015.52" y1="2862.35" x2="2303.82" y2="195.54">
   <stop offset="0" style="stop-opacity:1; stop-color:#03182B"/>
   <stop offset="1" style="stop-opacity:1; stop-color:white"/>
  </linearGradient>
  <linearGradient id="id1" gradientUnits="userSpaceOnUse" x1="3691.12" y1="176.68" x2="1203.01" y2="2476.37">
   <stop offset="0" style="stop-opacity:1; stop-color:#03182B"/>
   <stop offset="0.470588" style="stop-opacity:1; stop-color:#818B95"/>
   <stop offset="1" style="stop-opacity:1; stop-color:white"/>
  </linearGradient>
 </defs>
 <g id="Layer_x0020_1">
  <metadata id="CorelCorpID_0Corel-Layer"/>
  <g id="_704354000">
   <rect class="fil0 str0" x="9.99" y="9.98" width="4994.23" height="3947.87"/>
   <path class="fil1" d="M2122.62 1537.34c107.06,-19.44 187.65,53.07 202.77,137.95 19.5,109.57 -56.57,191.28 -138.74,203.98 -233.28,36.05 -283.49,-302.08 -64.03,-341.93zm466.12 -576.25c30.69,-24.4 55.69,-52.43 81.97,-81.14 24.26,-26.5 54.98,-64.41 83.2,-82.87l228.94 226.58c22.21,22.52 57.33,53.85 73.68,77.88 -7.5,22.98 -61.1,73.29 -78.35,92.31 -19.3,21.3 -63.83,73.87 -85.84,83.7l-153.99 -154.11c-27.81,-27.74 -50.8,-51.02 -78.07,-79.23 -22.36,-23.12 -60.39,-51.64 -71.54,-83.12zm-347.44 148.09l-145.6 152.26c-25.29,27.38 -44.63,49.95 -74.78,76.21 -25.97,22.61 -44.28,49.24 -70.09,72.66 -11.41,20.84 -177.74,180.51 -218.5,223.77 -61.74,65.53 -154.64,163.33 -160.96,272.9 -11.89,164.61 -0.13,226.49 79.06,331.02l8.89 6.36c38.73,29.97 65.49,60.54 115.23,81.88 165.1,70.82 287.88,15.61 398.47,-100.26l19.95 -18.75c11.24,-7.62 -0.86,-1.2 14.34,-7.8l577.52 -598.65c29.38,-17.98 430.94,-461.2 476,-485.11 8.72,-17.78 23.39,-32.49 38.27,-48.09 41.59,-43.64 76.89,-96.5 97.02,-154.81 62.33,-180.67 -21.93,-371.17 -189.66,-452.62 -78.45,-38.09 -194.96,-42.09 -278.71,-9.16 -83.95,33.02 -146.15,97 -192.01,147.86 -51.18,56.77 -108.13,117.99 -163.68,169.78 -95.19,88.73 -238.12,245.75 -330.75,340.55z"/>
   <path class="fil2" d="M1421.9 982.34l213.81 1.31c4.04,-27.1 -11.94,-99.83 -12.26,-141.3 -1.86,-245.32 185.42,-419.57 422.63,-384.55 47.84,7.06 84.65,20.48 122.85,41.72 39.97,22.25 64.57,48.37 100.09,67.61l145.83 -158.95c-208.48,-244.21 -727.1,-287.45 -954.43,149.92 -51.31,98.71 -83.64,299.46 -38.54,424.23zm1833.41 676.87l162.68 -175.58c0,0 509.61,394.23 118.79,901.28 0,0 -416.64,459.31 -942.86,-8.38l160.08 -154.8c0,0 107.23,130.41 266.98,137.93 173.51,8.17 228.82,-30.14 293.19,-82.17 76.89,-62.13 169.99,-214.37 107.35,-414.72 -21.82,-69.79 -89.01,-136.96 -166.21,-203.56zm-645.59 -694.12c11.15,31.48 49.17,60 71.54,83.12 27.27,28.21 50.26,51.49 78.07,79.23l153.99 154.11c22.01,-9.83 66.54,-62.41 85.84,-83.7 17.25,-19.03 70.85,-69.33 78.35,-92.31 -16.35,-24.03 -51.47,-55.36 -73.68,-77.88l-228.94 -226.58c-28.23,18.47 -58.94,56.37 -83.2,82.87 -26.28,28.71 -51.27,56.73 -81.97,81.14z"/>
   <path class="fil3" d="M2207.3 2199.43c-15.2,6.6 -3.11,0.18 -14.34,7.8l-19.95 18.75c-110.59,115.88 -233.37,171.08 -398.47,100.26 -49.73,-21.34 -76.5,-51.91 -115.23,-81.88l-8.89 -6.36c-79.19,-104.53 -90.94,-166.41 -79.06,-331.02 6.32,-109.57 99.23,-207.37 160.96,-272.9 40.75,-43.26 207.09,-202.94 218.5,-223.77 25.81,-23.41 44.12,-50.04 70.09,-72.66 30.16,-26.26 49.49,-48.83 74.78,-76.21l145.6 -152.26c92.62,-94.8 235.56,-251.82 330.75,-340.55 55.56,-51.79 112.5,-113.01 163.68,-169.78 45.86,-50.86 108.06,-114.84 192.01,-147.86 83.74,-32.93 200.26,-28.93 278.71,9.16 167.73,81.45 251.99,271.95 189.66,452.62 -20.13,58.31 -55.43,111.17 -97.02,154.81 -14.87,15.6 -29.55,30.31 -38.27,48.09 -45.06,23.91 -446.62,467.13 -476,485.11l-577.52 598.65zm833.86 -531.25c14.5,-18.64 38.55,-39.95 56.78,-59.03l367.83 -374.28c12.29,-11.3 47.28,-57.22 55.75,-75.52 58.14,-36.61 112.65,-222.19 119.9,-315.53 28.34,-364.82 -276.23,-699.35 -685.18,-634.96 -131.67,20.73 -217.19,83.46 -295.87,144.82l-443.56 449.83c-33.28,34.61 -73.63,85.48 -107.23,113.12 -32.76,26.95 -86.93,84.2 -110.74,114.24 -26.01,17.43 -62.27,59.91 -86.09,85.42 -32.08,34.36 -44.95,49.68 -88.05,87.77 -23.4,20.68 -161.25,164.64 -169.14,181.45 -30.36,16.04 -157.23,156.76 -188.84,197.14 -62.86,80.28 -90.39,151.89 -124.9,267.63 -20.43,48.68 -16.34,167.44 -8.4,224.47 11.29,81.17 35.84,129.53 59.34,190.68 37.15,95.29 134.93,186.85 204.96,231.58 96.13,61.41 213.99,95.2 350.79,89.97 133.71,-5.11 234.28,-59.01 313.66,-121.18 39.59,-31.01 207.12,-184.01 221.37,-223.08l483.69 -500.13c20.1,-20.4 57.18,-35.68 73.91,-74.41z"/>
   <path class="fil4" d="M2122.62 1537.34c-219.47,39.85 -169.25,377.98 64.03,341.93 82.17,-12.71 158.24,-94.41 138.74,-203.98 -15.11,-84.88 -95.71,-157.39 -202.77,-137.95z"/>
   <g>
    <path class="fil5" d="M1347.85 3193.03l-0.05 191.25c0.13,128.22 -24.35,271.87 85.28,308.8 54.59,18.39 108.21,-5.8 128.23,-42.37 33.68,-61.53 18.86,-443.6 19.1,-528.46 55.99,13.57 219.88,295.29 281.29,303 51.16,6.42 125,-109.88 150.42,-143.51l123.66 -151.77c20.54,-16.13 -15.05,2.83 22.01,-13.63l-3.85 413.66c0,92.77 24.06,166.71 116.34,168.94 148.64,3.61 120.12,-208.54 120.4,-351.08l-0.11 -418.93c-0.17,-238.11 -156.51,-258.51 -272.13,-123.63 -86.55,100.97 -164.88,199.11 -249.56,299.27l-41.34 -43.24c-17.59,-20.67 -22.18,-28.26 -36.09,-45.85 -44.43,-56.22 -199.83,-248.25 -237.98,-271.56 -100.29,-61.28 -191.82,19.33 -202.41,103.76 -11.38,90.78 -3.15,247.99 -3.23,345.34z"/>
    <path class="fil5" d="M3392.75 3437.64c72.95,5.94 213.76,-24.89 213.17,64.91 -0.56,84.87 -143.32,61.28 -212.86,62.61l-0.31 -127.52zm-0.82 -244.67c74.14,7.66 184.68,-22.06 183.26,64.28 -1.29,79.51 -119.59,55.08 -182.41,56.14l-0.85 -120.41zm-146.62 -7.39l-0.3 388.68c0.02,155.12 92.19,122.2 233.87,122.2 114.19,0 200.22,-15.27 245.43,-91.86 37.32,-63.24 38.17,-133.52 -8.08,-196.04 -20.46,-27.66 -30.34,-20.59 -48.84,-43.58 27.5,-36.49 49.87,-58.88 48.28,-125.56 -1.33,-55.84 -21.6,-89.9 -51.3,-119.69 -77.39,-77.61 -189.74,-63.04 -317.03,-62.96 -90.52,0.08 -101.96,42.5 -102.02,128.82z"/>
    <path class="fil5" d="M2797.29 3204.57c211.79,-28.43 262.06,317.76 32.15,346.99 -211.32,26.85 -283.91,-313.19 -32.15,-346.99zm-48.1 -143.05c-161.68,30.04 -292.56,182.8 -254.96,380.48 29.59,155.51 184.86,287.4 382.14,251.42 157.21,-28.68 283.06,-185.64 248.3,-379.68 -28.55,-159.36 -180.68,-288.42 -375.49,-252.22z"/>
    <rect class="fil5" x="2476.62" y="2764.01" width="1262.24" height="211.28" rx="105.64" ry="105.64"/>
   </g>
  </g>
 </g>
</svg>
