<?xml version="1.0" encoding="UTF-8"?>
<!DOCTYPE svg PUBLIC "-//W3C//DTD SVG 1.1//EN" "http://www.w3.org/Graphics/SVG/1.1/DTD/svg11.dtd">
<!-- Creator: CorelDRAW 2019 -->
<svg xmlns="http://www.w3.org/2000/svg" xml:space="preserve" width="98.8873mm" height="16.9494mm" version="1.1" style="shape-rendering:geometricPrecision; text-rendering:geometricPrecision; image-rendering:optimizeQuality; fill-rule:evenodd; clip-rule:evenodd"
viewBox="0 0 1583.8 271.47"
 xmlns:xlink="http://www.w3.org/1999/xlink"
 xmlns:xodm="http://www.corel.com/coreldraw/odm/2003">
 <defs>
  <style type="text/css">
   <![CDATA[
    .fil11 {fill:url(#id0);fill-rule:nonzero}
    .fil5 {fill:url(#id1);fill-rule:nonzero}
    .fil2 {fill:url(#id2);fill-rule:nonzero}
    .fil10 {fill:url(#id3);fill-rule:nonzero}
    .fil3 {fill:url(#id4);fill-rule:nonzero}
    .fil6 {fill:url(#id5);fill-rule:nonzero}
    .fil4 {fill:url(#id6);fill-rule:nonzero}
    .fil0 {fill:url(#id7);fill-rule:nonzero}
    .fil7 {fill:url(#id8);fill-rule:nonzero}
    .fil1 {fill:url(#id9);fill-rule:nonzero}
    .fil8 {fill:url(#id10);fill-rule:nonzero}
    .fil9 {fill:url(#id11);fill-rule:nonzero}
   ]]>
  </style>
  <linearGradient id="id0" gradientUnits="userSpaceOnUse" x1="193.33" y1="133.47" x2="1364.78" y2="133.46">
   <stop offset="0" style="stop-opacity:1; stop-color:#9D6A33"/>
   <stop offset="0.509804" style="stop-opacity:1; stop-color:#673709"/>
   <stop offset="1" style="stop-opacity:1; stop-color:#9D6927"/>
  </linearGradient>
  <linearGradient id="id1" gradientUnits="userSpaceOnUse" xlink:href="#id0" x1="193.33" y1="133.47" x2="1364.79" y2="133.46">
  </linearGradient>
  <linearGradient id="id2" gradientUnits="userSpaceOnUse" xlink:href="#id0" x1="193.33" y1="133.47" x2="1364.79" y2="133.46">
  </linearGradient>
  <linearGradient id="id3" gradientUnits="userSpaceOnUse" xlink:href="#id0" x1="193.33" y1="133.47" x2="1364.78" y2="133.46">
  </linearGradient>
  <linearGradient id="id4" gradientUnits="userSpaceOnUse" xlink:href="#id0" x1="193.33" y1="133.47" x2="1364.79" y2="133.46">
  </linearGradient>
  <linearGradient id="id5" gradientUnits="userSpaceOnUse" xlink:href="#id0" x1="193.33" y1="133.47" x2="1364.79" y2="133.46">
  </linearGradient>
  <linearGradient id="id6" gradientUnits="userSpaceOnUse" xlink:href="#id0" x1="193.33" y1="133.47" x2="1364.79" y2="133.46">
  </linearGradient>
  <linearGradient id="id7" gradientUnits="userSpaceOnUse" xlink:href="#id0" x1="193.33" y1="133.47" x2="1364.79" y2="133.46">
  </linearGradient>
  <linearGradient id="id8" gradientUnits="userSpaceOnUse" xlink:href="#id0" x1="193.33" y1="133.47" x2="1364.79" y2="133.46">
  </linearGradient>
  <linearGradient id="id9" gradientUnits="userSpaceOnUse" xlink:href="#id0" x1="193.33" y1="133.47" x2="1364.79" y2="133.46">
  </linearGradient>
  <linearGradient id="id10" gradientUnits="userSpaceOnUse" xlink:href="#id0" x1="193.33" y1="133.47" x2="1364.78" y2="133.46">
  </linearGradient>
  <linearGradient id="id11" gradientUnits="userSpaceOnUse" xlink:href="#id0" x1="193.33" y1="133.47" x2="1364.8" y2="133.46">
  </linearGradient>
 </defs>
 <g id="Layer_x0020_1">
  <metadata id="CorelCorpID_0Corel-Layer"/>
  <g id="_903041176">
   <path class="fil0" d="M1530.09 106.06c-25.58,2.2 -43.78,17.87 -60.72,35.88 6.54,-20.59 6.76,-43.07 -2.63,-62.17 -16.45,-33.49 -70.37,-43.35 -103.62,-35.27 -32.69,7.94 -60.52,38.18 -52.19,73.68 8.78,37.36 50.33,46.05 77.87,23.91 8.58,-6.9 5.18,-19.12 -4.2,-23.48 -11.21,-5.21 -23.45,4.11 -34.46,-0.52 -2.97,-1.25 -5.38,-3.54 -7.35,-6.08 -3.48,-4.5 -5.74,-10.28 -4.71,-15.88 0.78,-4.25 3.4,-8 6.59,-10.91 10.98,-9.99 26.5,-14.61 41.09,-14.58 25.34,0.05 58.11,9.83 59.98,39 3.01,46.92 -37.92,76.16 -80.97,76.33 -76.09,0.31 -150.76,-43.96 -219.45,-71.48 -63.37,-25.39 -128.2,-37.34 -194.49,-15.27 -62.58,20.83 -123.08,65.43 -159.78,120.46 -1.8,2.7 2.01,5.02 4.19,3.23 0.89,-0.73 1.75,-1.46 2.64,-2.19 0.15,-0.08 0.31,-0.06 0.44,-0.2 0.33,-0.35 0.68,-0.66 1.01,-1.01 9.27,-7.64 18.4,-15.29 27.5,-22.84 11.71,-7.43 24.57,-12.74 39.53,-15.24 12.4,-2.07 27.26,-3.5 39.3,1.14 13.13,5.07 26.1,14.73 20.15,30.24 -3.01,7.84 -8.92,13.98 -16.95,16.66 -6.19,2.06 -16.7,5.05 -22.43,1.15 -2.96,-2.01 -4.66,-6.06 -3.29,-9.37 3.58,-8.67 19.12,-6.88 12.93,-18.65 -3.3,-6.28 -9.77,-9.82 -16.78,-9.69 -14.46,0.28 -27.02,14.26 -24.46,28.7 6.76,38.26 58.77,31.96 77.63,8.46 22.45,-27.98 -2.45,-57.06 -32.61,-61.94 -13.37,-2.16 -27.05,-1.18 -40.13,2.29 2.41,-1.83 4.79,-3.73 7.22,-5.51 8.2,-3.09 16.87,-5.18 25.78,-6.32 33.36,-4.28 53.29,9.9 76.68,31.28 27.03,24.7 51.3,52.98 84.7,69.44 46.96,23.14 128,17.14 125,-52.35 -2.11,-48.91 -79.45,-69.52 -111.79,-37.06 -32.73,32.84 18.31,67.43 46.2,41.72 7.27,-6.7 -2.07,-18.49 -10.46,-13.55 -8.68,3.85 -26.93,9.13 -22.57,-8.04 6.07,-23.91 41.45,-21.09 57.51,-10.88 13.7,8.71 25.52,27.43 21.4,44 -3.61,14.48 -16.37,28.26 -32.08,30.31 -6.72,0.88 -13.46,1.75 -20.19,2.63 -17.69,0.26 -34.44,-5.13 -49.97,-13.19 -36.69,-19.04 -62.15,-52.67 -94.47,-77.45 -7.66,-5.88 -16.32,-10.4 -25.45,-13.67 36.72,3.69 72.85,15.69 110.08,2.15 5.31,-1.93 6.69,-8.99 1.59,-12.14 -34.7,-21.47 -74.3,-26.65 -111.37,-16.9 9.53,-3.69 19.45,-6.86 29.87,-9.36 67.54,-16.19 127.84,3.97 189.09,31.05 74.89,33.1 210.8,110.08 285.93,39.09 3.9,-3.69 7.51,-7.86 10.84,-12.32 4.17,-3.42 8.28,-7.06 12.45,-10.89 12.32,-11.33 23.88,-24.09 38.67,-32.39 7.61,-4.27 41.96,-18.5 41.11,1.74 -0.38,8.91 -7.28,8.53 -13.46,9.6 -6.41,1.11 -12.91,6.29 -17.01,11.14 -9.27,10.98 -8.33,25.03 1.31,35.47 19.67,21.33 53.24,4.66 63.03,-17.37 15.64,-35.23 -12.33,-67.77 -49.28,-64.59z"/>
   <path class="fil1" d="M1128.56 80.81c-116.93,-51.87 -291.93,8.36 -341.41,129.31 -0.42,1.05 1.23,2.01 1.93,1.12 38.14,-48.48 78.88,-88.95 137.62,-111.89 67.1,-26.2 128.31,-17.31 196.99,-6.98 6.37,0.96 12.05,-8.38 4.88,-11.57z"/>
   <path class="fil2" d="M1333.5 26.62c5.15,-8.25 -1.58,-18.74 -10.84,-18.89 -33.59,-0.54 -55.94,41.06 -57.94,70.47 -1.18,17.4 9.19,70.8 36.39,63.56 2.06,-0.55 3.03,-2.65 2.63,-4.63 -4.47,-22.23 -13.64,-38.34 -6.27,-62.32 6.64,-21.6 24.87,-30.27 36.03,-48.18z"/>
   <path class="fil3" d="M1239.63 117.31c-18.71,-11.36 -39.16,-21.58 -60.06,-28.2 -15.93,-5.04 -26.95,19.87 -11.54,27.37 16.74,8.15 34.56,14.37 52.19,20.29 13.03,4.39 26.8,10 40.62,11.03 1.81,0.13 2.97,-1.56 3.14,-3.14 1.5,-13.94 -14.26,-21.22 -24.35,-27.35z"/>
   <path class="fil4" d="M1266.21 0.57c-18.24,7.35 -25.06,29.27 -27.86,47.53 -3.41,22.16 0.45,38.48 13.23,56.07 2.62,3.6 8.75,2.62 8.77,-2.38 0.08,-15.55 1.65,-34.04 5.21,-49.1 3.41,-14.42 13.58,-27.33 13.77,-42.13 0.07,-6.12 -6.79,-12.54 -13.12,-9.99z"/>
   <path class="fil5" d="M1236.51 88.98c-1.41,-8.62 -7.61,-15.67 -12.27,-22.78 -4.87,-7.43 -9.18,-15.13 -15.63,-21.34 -8.65,-8.32 -21.69,0.14 -19.38,11.28 2.05,9.87 7.66,18.18 13.48,26.24 5.84,8.1 11.58,15.63 21.19,19.21 8.09,3.01 13.75,-5.71 12.61,-12.62z"/>
   <path class="fil6" d="M53.71 106.06c25.58,2.2 43.78,17.87 60.72,35.88 -6.54,-20.59 -6.75,-43.07 2.63,-62.17 16.45,-33.49 70.38,-43.35 103.63,-35.27 32.69,7.94 60.53,38.18 52.19,73.68 -8.78,37.36 -50.33,46.05 -77.86,23.91 -8.58,-6.9 -5.18,-19.12 4.2,-23.48 11.21,-5.21 23.45,4.11 34.46,-0.52 2.96,-1.25 5.38,-3.54 7.35,-6.08 3.47,-4.5 5.74,-10.28 4.71,-15.88 -0.79,-4.25 -3.4,-8 -6.59,-10.91 -10.98,-9.99 -26.51,-14.61 -41.09,-14.58 -25.33,0.05 -58.1,9.83 -59.97,39 -3.01,46.92 37.91,76.16 80.96,76.33 76.1,0.31 150.76,-43.96 219.45,-71.48 63.37,-25.39 128.2,-37.34 194.5,-15.27 62.58,20.83 123.08,65.43 159.77,120.46 1.8,2.7 -2,5.02 -4.19,3.23 -0.89,-0.73 -1.75,-1.46 -2.64,-2.19 -0.14,-0.08 -0.3,-0.06 -0.43,-0.2 -0.33,-0.35 -0.68,-0.66 -1.01,-1.01 -9.27,-7.64 -18.4,-15.29 -27.49,-22.84 -11.71,-7.43 -24.57,-12.74 -39.53,-15.24 -12.4,-2.07 -27.26,-3.5 -39.3,1.14 -13.13,5.07 -26.1,14.73 -20.15,30.24 3.01,7.84 8.92,13.98 16.95,16.66 6.19,2.06 16.7,5.05 22.43,1.15 2.96,-2.01 4.66,-6.06 3.3,-9.37 -3.58,-8.67 -19.12,-6.88 -12.93,-18.65 3.3,-6.28 9.78,-9.82 16.79,-9.69 14.46,0.28 27.01,14.26 24.46,28.7 -6.76,38.26 -58.77,31.96 -77.63,8.46 -22.46,-27.98 2.45,-57.06 32.61,-61.94 13.37,-2.16 27.05,-1.18 40.13,2.29 -2.41,-1.83 -4.79,-3.73 -7.22,-5.51 -8.21,-3.09 -16.87,-5.18 -25.78,-6.32 -33.36,-4.28 -53.29,9.9 -76.68,31.28 -27.02,24.7 -51.3,52.98 -84.7,69.44 -46.96,23.14 -128,17.14 -125,-52.35 2.11,-48.91 79.45,-69.52 111.79,-37.06 32.73,32.84 -18.31,67.43 -46.2,41.72 -7.27,-6.7 2.07,-18.49 10.46,-13.55 8.68,3.85 26.93,9.13 22.58,-8.04 -6.08,-23.91 -41.46,-21.09 -57.51,-10.88 -13.7,8.71 -25.53,27.43 -21.4,44 3.6,14.48 16.37,28.26 32.08,30.31 6.73,0.88 13.46,1.75 20.19,2.63 17.69,0.26 34.44,-5.13 49.97,-13.19 36.69,-19.04 62.15,-52.67 94.47,-77.45 7.67,-5.88 16.32,-10.4 25.45,-13.67 -36.72,3.69 -72.85,15.69 -110.08,2.15 -5.31,-1.93 -6.68,-8.99 -1.59,-12.14 34.7,-21.47 74.3,-26.65 111.36,-16.9 -9.53,-3.69 -19.45,-6.86 -29.87,-9.36 -67.54,-16.19 -127.84,3.97 -189.09,31.05 -74.89,33.1 -210.79,110.08 -285.93,39.09 -3.9,-3.69 -7.51,-7.86 -10.84,-12.32 -4.17,-3.42 -8.29,-7.06 -12.45,-10.89 -12.32,-11.33 -23.89,-24.09 -38.68,-32.39 -7.61,-4.27 -41.95,-18.5 -41.11,1.74 0.37,8.91 7.29,8.53 13.46,9.6 6.41,1.11 12.92,6.29 17.01,11.14 9.27,10.98 8.34,25.03 -1.3,35.47 -19.68,21.33 -53.25,4.66 -63.03,-17.37 -15.64,-35.23 12.33,-67.77 49.28,-64.59z"/>
   <path class="fil7" d="M455.23 80.81c116.93,-51.87 291.93,8.36 341.41,129.31 0.42,1.05 -1.23,2.01 -1.93,1.12 -38.14,-48.48 -78.88,-88.95 -137.61,-111.89 -67.1,-26.2 -128.31,-17.31 -196.99,-6.98 -6.37,0.96 -12.06,-8.38 -4.88,-11.57z"/>
   <path class="fil8" d="M250.3 26.62c-5.15,-8.25 1.58,-18.74 10.84,-18.89 33.6,-0.54 55.94,41.06 57.94,70.47 1.19,17.4 -9.19,70.8 -36.39,63.56 -2.07,-0.55 -3.03,-2.65 -2.63,-4.63 4.46,-22.23 13.64,-38.34 6.27,-62.32 -6.64,-21.6 -24.87,-30.27 -36.03,-48.18z"/>
   <path class="fil9" d="M344.16 117.31c18.71,-11.36 39.16,-21.58 60.06,-28.2 15.93,-5.04 26.95,19.87 11.54,27.37 -16.74,8.15 -34.56,14.37 -52.19,20.29 -13.04,4.39 -26.8,10 -40.63,11.03 -1.81,0.13 -2.97,-1.56 -3.14,-3.14 -1.5,-13.94 14.26,-21.22 24.35,-27.35z"/>
   <path class="fil10" d="M317.59 0.57c18.24,7.35 25.06,29.27 27.87,47.53 3.4,22.16 -0.45,38.48 -13.23,56.07 -2.62,3.6 -8.75,2.62 -8.78,-2.38 -0.08,-15.55 -1.65,-34.04 -5.21,-49.1 -3.41,-14.42 -13.57,-27.33 -13.76,-42.13 -0.08,-6.12 6.79,-12.54 13.11,-9.99z"/>
   <path class="fil11" d="M347.28 88.98c1.41,-8.62 7.62,-15.67 12.27,-22.78 4.87,-7.43 9.18,-15.13 15.64,-21.34 8.65,-8.32 21.69,0.14 19.38,11.28 -2.05,9.87 -7.66,18.18 -13.48,26.24 -5.84,8.1 -11.58,15.63 -21.19,19.21 -8.09,3.01 -13.75,-5.71 -12.62,-12.62z"/>
  </g>
 </g>
</svg>
