<?xml version="1.0" encoding="UTF-8" standalone="no"?>
<!-- Uploaded to: SVG Repo, www.svgrepo.com, Generator: SVG Repo Mixer Tools -->
<svg width="800px" height="800px" viewBox="0 0 64 64" version="1.1" xmlns="http://www.w3.org/2000/svg" xmlns:xlink="http://www.w3.org/1999/xlink">
    
    <title>cel-rings-love</title>
    <desc>Created with Sketch.</desc>
    <defs>

</defs>
    <g id="64px-Glyph" stroke="none" stroke-width="1" fill="none" fill-rule="evenodd">
        <g id="cel-rings-love" fill="rgb(103, 55, 9)">
            <path d="M31,26.001 C30.73,26.001 30.472,25.892 30.284,25.698 L21.861,17.05 C19.384,14.531 19.384,10.427 21.864,7.904 C23.07,6.678 24.676,6.002 26.384,6.002 C28.093,6.001 29.699,6.677 30.905,7.904 L30.999,7.99 L31.131,7.869 C32.302,6.677 33.907,6.001 35.616,6.001 L35.616,6.001 C37.325,6.001 38.93,6.677 40.136,7.904 C42.616,10.427 42.616,14.53 40.137,17.053 L31.716,25.698 C31.528,25.892 31.27,26.001 31,26.001" id="Fill-351">

</path>
            <path d="M21,60.001 C11.626,60.001 4,52.375 4,43.001 C4,33.627 11.626,26.001 21,26.001 C23.296,26.001 25.523,26.451 27.618,27.338 C28.126,27.554 28.364,28.14 28.149,28.648 C27.934,29.157 27.346,29.396 26.838,29.18 C24.991,28.398 23.026,28.001 21,28.001 C12.729,28.001 6,34.729 6,43.001 C6,51.273 12.729,58.001 21,58.001 C29.271,58.001 36,51.273 36,43.001 C36,39.729 34.965,36.618 33.007,34.008 C32.676,33.566 32.765,32.94 33.207,32.608 C33.651,32.278 34.276,32.366 34.607,32.809 C36.827,35.768 38,39.292 38,43.001 C38,52.375 30.374,60.001 21,60.001" id="Fill-353">

</path>
            <path d="M41,60.001 C38.506,60.001 36.102,59.473 33.855,58.431 C33.354,58.198 33.136,57.604 33.369,57.103 C33.602,56.601 34.196,56.383 34.697,56.616 C36.678,57.535 38.798,58.001 41,58.001 C49.271,58.001 56,51.273 56,43.001 C56,34.729 49.271,28.001 41,28.001 C32.729,28.001 26,34.729 26,43.001 C26,46.273 27.035,49.384 28.993,51.994 C29.324,52.436 29.235,53.062 28.793,53.394 C28.35,53.727 27.724,53.637 27.393,53.193 C25.173,50.234 24,46.71 24,43.001 C24,33.627 31.626,26.001 41,26.001 C50.374,26.001 58,33.627 58,43.001 C58,52.375 50.374,60.001 41,60.001" id="Fill-355">

</path>
        </g>
    </g>
</svg>